<?xml version="1.0" encoding="UTF-8"?>
<svg xmlns="http://www.w3.org/2000/svg" width="1254" height="1254" viewBox="0 0 1254 1254">
  <rect width="1254" height="1254" fill="#0a1628"/>
  <path d="M 368 4 L 406 6 L 246 8 L 416 8 L 215 12 L 427 12 L 208 16 L 439 18 L 199 20 L 466 22 L 197 24 L 743 26 L 236 28 L 443 28 L 195 32 L 467 32 L 194 36 L 504 40 L 186 44 L 499 46 L 184 48 L 790 52 L 178 54 L 807 54 L 178 56 L 812 56 L 183 62 L 801 62 L 183 64 L 818 64 L 192 68 L 832 68 L 184 72 L 818 72 L 204 74 L 844 74 L 188 80 L 853 80 L 191 84 L 856 84 L 194 86 L 857 86 L 197 88 L 876 88 L 190 90 L 869 90 L 194 94 L 865 94 L 206 96 L 824 96 L 200 102 L 873 104 L 190 108 L 880 112 L 203 114 L 913 114 L 209 116 L 654 116 L 181 118 L 835 120 L 202 124 L 865 124 L 222 126 L 800 126 L 174 128 L 791 132 L 172 138 L 962 140 L 192 144 L 1013 144 L 196 146 L 938 146 L 186 148 L 1010 148 L 181 154 L 1012 154 L 176 156 L 1056 156 L 176 158 L 1057 160 L 173 162 L 1066 166 L 156 170 L 1075 174 L 175 176 L 1072 176 L 174 178 L 1070 180 L 172 182 L 1069 182 L 172 184 L 1060 188 L 176 192 L 1060 192 L 171 194 L 1038 196 L 191 198 L 1030 200 L 178 204 L 1020 208 L 194 210 L 1055 210 L 175 212 L 1029 212 L 196 214 L 1038 218 L 172 220 L 1050 222 L 197 224 L 911 224 L 178 226 L 1041 226 L 158 228 L 985 228 L 157 230 L 906 230 L 158 232 L 905 232 L 161 238 L 1020 238 L 162 240 L 1037 240 L 148 244 L 1024 246 L 146 248 L 1021 248 L 155 252 L 1034 256 L 165 258 L 1036 258 L 166 260 L 1039 260 L 164 262 L 1047 262 L 164 264 L 1072 268 L 170 270 L 1072 270 L 171 272 L 1077 276 L 174 278 L 1084 278 L 175 280 L 1086 280 L 177 282 L 1088 284 L 154 286 L 1091 290 L 191 296 L 1078 296 L 186 298 L 1074 298 L 185 300 L 1057 300 L 184 302 L 234 302 L 187 304 L 236 304 L 192 306 L 241 306 L 197 310 L 238 310 L 208 314 L 251 320 L 228 322 L 556 322 L 228 324 L 563 324 L 229 326 L 1198 326 L 167 328 L 1179 330 L 168 332 L 248 332 L 107 338 L 1082 338 L 107 340 L 1189 340 L 100 342 L 1064 344 L 98 346 L 237 346 L 85 350 L 506 354 L 83 356 L 416 358 L 86 360 L 219 360 L 75 362 L 217 362 L 74 364 L 193 364 L 79 366 L 119 366 L 74 368 L 120 368 L 74 370 L 120 370 L 67 374 L 118 374 L 75 382 L 1211 382 L 76 384 L 1180 386 L 84 388 L 1169 390 L 71 392 L 138 392 L 62 396 L 140 406 L 37 410 L 133 412 L 35 414 L 111 416 L 25 418 L 1133 422 L 25 424 L 1151 426 L 30 428 L 1139 428 L 26 432 L 1109 436 L 20 442 L 203 442 L 35 446 L 68 446 L 32 450 L 66 450 L 32 454 L 67 456 L 28 458 L 190 458 L 28 460 L 190 462 L 42 464 L 179 468 L 49 470 L 188 470 L 62 474 L 186 478 L 70 480 L 1033 484 L 133 486 L 1084 486 L 69 490 L 1040 490 L 107 492 L 197 492 L 124 500 L 1094 500 L 119 502 L 1050 504 L 134 510 L 1151 512 L 129 514 L 1084 516 L 150 518 L 155 520 L 144 522 L 267 522 L 123 524 L 1083 524 L 138 526 L 1081 526 L 136 528 L 266 528 L 126 530 L 890 530 L 125 536 L 890 538 L 183 540 L 1117 540 L 121 544 L 1104 544 L 129 546 L 784 550 L 128 554 L 278 554 L 127 556 L 283 560 L 102 562 L 288 562 L 55 564 L 308 568 L 73 574 L 302 574 L 77 576 L 315 576 L 79 578 L 316 578 L 51 582 L 311 582 L 87 586 L 317 588 L 74 590 L 323 592 L 90 596 L 324 596 L 177 598 L 847 598 L 34 602 L 399 606 L 42 612 L 343 612 L 42 614 L 345 618 L 146 620 L 343 620 L 190 622 L 726 622 L 94 628 L 346 628 L 94 630 L 343 632 L 106 634 L 342 634 L 105 636 L 341 636 L 103 638 L 336 638 L 103 640 L 335 642 L 109 646 L 191 646 L 58 652 L 186 652 L 59 658 L 322 658 L 183 660 L 279 664 L 189 668 L 837 668 L 195 674 L 319 678 L 202 680 L 309 680 L 200 688 L 217 688 L 211 708 L 233 712 L 236 720 L 202 724 L 266 724 L 203 726 L 267 726 L 200 728 L 278 728 L 203 730 L 260 730 L 226 734 L 212 744 L 217 752 L 267 754 L 234 758 L 1099 762 L 122 772 L 285 774 L 211 780 L 232 788 L 217 790 L 229 794 L 1161 796 L 1136 798 L 1160 816 L 55 832 L 63 852 L 57 856 L 1017 856 L 52 862 L 1028 862 L 46 864 L 41 874 L 1041 876 L 1027 878 L 1057 882 L 66 884 L 1050 884 L 1062 886 L 1051 890 L 1200 890 L 60 896 L 98 902 L 77 904 L 98 904 L 81 906 L 99 912 L 92 918 L 118 924 L 100 930 L 98 938 L 113 938 L 96 940 L 152 940 L 128 942 L 157 946 L 150 948 L 159 950 L 153 966 L 177 992 L 167 1002 L 185 1006 L 48 1022 L 192 1048 L 59 1062 L 959 1102 L 253 1130 L 514 1140 L 546 1154 L 595 1154 L 566 1160 L 776 1212 L 670 1218 L 20 444 L 26 418 L 28 602 L 30 425 L 34 603 L 36 411 L 40 616 L 42 436 L 42 875 L 48 434 L 48 1023 L 50 464 L 50 865 L 54 434 L 58 857 L 60 423 L 60 897 L 62 396 L 66 885 L 68 374 L 70 902 L 76 362 L 78 905 L 80 362 L 80 906 L 82 361 L 82 907 L 84 361 L 84 972 L 86 349 L 88 924 L 94 347 L 94 916 L 96 348 L 96 941 L 98 345 L 98 941 L 100 342 L 100 941 L 102 380 L 102 932 L 104 378 L 104 641 L 106 370 L 108 925 L 112 369 L 112 939 L 114 368 L 114 930 L 116 336 L 116 926 L 118 336 L 118 924 L 124 334 L 128 943 L 130 342 L 132 559 L 138 334 L 140 636 L 144 342 L 144 941 L 146 248 L 146 954 L 148 244 L 150 949 L 152 173 L 152 966 L 156 170 L 156 948 L 158 228 L 158 952 L 164 228 L 168 1003 L 170 188 L 170 1002 L 172 138 L 172 999 L 174 128 L 174 1005 L 176 128 L 176 1000 L 178 53 L 182 1007 L 184 48 L 184 1007 L 186 44 L 188 670 L 192 35 L 192 1050 L 194 36 L 194 674 L 196 25 L 196 679 L 200 19 L 204 731 L 208 16 L 210 689 L 212 14 L 212 745 L 218 14 L 218 792 L 220 111 L 220 742 L 222 13 L 226 737 L 232 9 L 232 756 L 234 10 L 234 814 L 236 11 L 236 760 L 238 12 L 242 748 L 244 12 L 244 642 L 246 5 L 246 330 L 248 7 L 250 330 L 256 10 L 256 338 L 258 11 L 258 731 L 260 10 L 262 730 L 266 9 L 266 755 L 268 9 L 268 566 L 274 9 L 274 730 L 276 10 L 278 730 L 282 12 L 282 778 L 284 12 L 284 775 L 286 12 L 288 752 L 290 13 L 294 572 L 296 14 L 296 573 L 298 13 L 298 574 L 300 14 L 300 684 L 302 18 L 302 684 L 304 19 L 304 684 L 306 19 L 308 681 L 310 19 L 314 588 L 316 23 L 316 615 L 318 24 L 318 679 L 320 25 L 322 604 L 324 21 L 324 617 L 326 26 L 328 609 L 330 33 L 330 640 L 334 37 L 334 643 L 336 38 L 336 642 L 338 37 L 342 642 L 344 33 L 344 630 L 346 35 L 346 627 L 348 38 L 348 164 L 350 34 L 350 151 L 352 34 L 352 146 L 354 37 L 354 140 L 356 37 L 360 116 L 362 39 L 362 144 L 368 4 L 370 590 L 372 15 L 372 51 L 376 6 L 380 52 L 382 7 L 382 52 L 384 6 L 384 49 L 390 6 L 390 49 L 392 6 L 392 47 L 394 12 L 394 44 L 396 15 L 396 41 L 398 20 L 398 607 L 400 7 L 400 113 L 404 5 L 406 126 L 412 11 L 412 141 L 414 8 L 414 125 L 416 13 L 416 203 L 420 14 L 420 241 L 422 14 L 422 200 L 428 16 L 428 210 L 430 25 L 430 210 L 434 16 L 434 200 L 436 17 L 436 171 L 438 18 L 438 173 L 440 19 L 440 172 L 442 26 L 442 179 L 444 26 L 448 188 L 450 31 L 450 197 L 452 20 L 452 194 L 454 21 L 454 194 L 456 35 L 456 199 L 458 19 L 458 193 L 464 22 L 466 66 L 468 41 L 468 211 L 472 37 L 472 390 L 474 62 L 482 66 L 484 54 L 488 65 L 490 57 L 490 211 L 492 49 L 492 208 L 498 46 L 498 206 L 500 40 L 500 202 L 502 40 L 506 356 L 508 51 L 510 323 L 514 62 L 514 214 L 518 69 L 520 221 L 524 100 L 524 325 L 526 101 L 530 251 L 532 99 L 536 215 L 538 101 L 538 221 L 540 100 L 540 218 L 546 101 L 546 1156 L 548 98 L 548 183 L 550 93 L 550 218 L 552 94 L 556 192 L 558 92 L 558 210 L 562 93 L 562 325 L 566 102 L 566 1161 L 568 89 L 570 195 L 576 92 L 576 174 L 580 95 L 580 115 L 586 95 L 586 123 L 588 97 L 588 135 L 594 99 L 594 1157 L 596 96 L 600 251 L 602 100 L 602 1171 L 604 95 L 606 149 L 610 99 L 610 149 L 614 109 L 614 180 L 616 104 L 618 245 L 620 129 L 620 257 L 622 111 L 622 131 L 624 98 L 624 256 L 630 59 L 632 165 L 638 49 L 638 229 L 640 49 L 642 150 L 644 68 L 644 147 L 646 76 L 646 231 L 648 64 L 648 222 L 650 64 L 650 143 L 652 54 L 654 198 L 656 55 L 656 201 L 658 53 L 658 206 L 662 53 L 662 281 L 664 51 L 666 278 L 670 56 L 670 1219 L 674 59 L 674 191 L 676 58 L 676 189 L 678 58 L 680 188 L 682 73 L 686 171 L 688 133 L 688 160 L 694 160 L 700 79 L 704 238 L 706 72 L 706 239 L 712 71 L 712 190 L 718 85 L 718 221 L 720 84 L 720 213 L 722 87 L 726 193 L 728 86 L 728 194 L 730 87 L 730 197 L 732 89 L 732 199 L 738 84 L 738 211 L 740 90 L 740 214 L 742 26 L 746 218 L 750 82 L 750 179 L 758 88 L 762 163 L 766 143 L 768 148 L 770 68 L 770 156 L 772 62 L 772 153 L 774 63 L 774 147 L 776 51 L 776 170 L 778 48 L 782 226 L 784 57 L 784 227 L 786 51 L 786 228 L 788 51 L 788 233 L 794 58 L 794 134 L 800 59 L 800 146 L 802 58 L 802 148 L 806 54 L 806 86 L 808 55 L 808 83 L 810 55 L 810 77 L 814 68 L 814 107 L 816 73 L 816 113 L 822 95 L 826 153 L 828 108 L 828 126 L 836 107 L 836 669 L 840 73 L 842 509 L 846 82 L 846 599 L 852 80 L 852 105 L 854 84 L 858 95 L 860 90 L 860 642 L 864 89 L 866 128 L 868 89 L 870 107 L 874 88 L 874 113 L 876 89 L 880 297 L 882 135 L 888 541 L 908 114 L 908 226 L 910 114 L 910 225 L 912 114 L 912 197 L 918 141 L 918 195 L 920 141 L 920 223 L 922 139 L 926 190 L 928 146 L 928 216 L 930 143 L 932 217 L 934 144 L 934 217 L 936 145 L 936 185 L 938 147 L 944 200 L 948 163 L 948 205 L 950 168 L 952 1106 L 956 143 L 958 1103 L 960 138 L 964 195 L 982 167 L 982 186 L 984 168 L 984 229 L 986 151 L 990 197 L 994 152 L 996 234 L 998 161 L 998 272 L 1004 145 L 1004 279 L 1006 151 L 1010 277 L 1012 144 L 1014 854 L 1016 176 L 1016 857 L 1018 208 L 1018 854 L 1020 214 L 1020 249 L 1022 189 L 1024 255 L 1028 192 L 1028 879 L 1030 195 L 1034 878 L 1038 195 L 1038 882 L 1040 226 L 1040 877 L 1042 263 L 1042 784 L 1044 188 L 1046 506 L 1050 161 L 1050 890 L 1052 160 L 1052 891 L 1054 155 L 1054 891 L 1056 160 L 1056 891 L 1060 182 L 1062 893 L 1064 165 L 1064 893 L 1068 178 L 1068 340 L 1074 174 L 1076 527 L 1078 278 L 1080 527 L 1082 278 L 1082 525 L 1084 279 L 1090 290 L 1098 764 L 1100 305 L 1100 764 L 1110 429 L 1114 542 L 1116 291 L 1116 542 L 1124 418 L 1130 429 L 1132 422 L 1136 426 L 1136 800 L 1138 427 L 1142 797 L 1150 425 L 1152 790 L 1160 796 L 1160 876 L 1164 388 L 1164 808 L 1166 388 L 1178 326 L 1178 386 L 1184 326 L 1184 736 L 1192 325 L 1210 383 Z" fill="#3d5c35" stroke="#2a4025" stroke-width="2"/>
</svg>